<mxfile host="app.diagrams.net" modified="2024-02-07T13:11:23.542Z" agent="Mozilla/5.0 (Macintosh; Intel Mac OS X 10_15_7) AppleWebKit/537.36 (KHTML, like Gecko) Chrome/121.0.0.0 Safari/537.36" etag="3ABhYTsUaIFXJ7cX2sLx" version="23.1.1" type="device" pages="3">
  <diagram id="C5RBs43oDa-KdzZeNtuy" name="Class diagram">
    <mxGraphModel dx="954" dy="581" grid="1" gridSize="10" guides="1" tooltips="1" connect="1" arrows="1" fold="1" page="1" pageScale="1" pageWidth="827" pageHeight="1169" math="0" shadow="0">
      <root>
        <mxCell id="WIyWlLk6GJQsqaUBKTNV-0" />
        <mxCell id="WIyWlLk6GJQsqaUBKTNV-1" parent="WIyWlLk6GJQsqaUBKTNV-0" />
        <mxCell id="lsLaWu2NGyzTViGppG-I-3" value="" style="group" parent="WIyWlLk6GJQsqaUBKTNV-1" vertex="1" connectable="0">
          <mxGeometry x="20" y="100" width="620" height="620" as="geometry" />
        </mxCell>
        <mxCell id="lsLaWu2NGyzTViGppG-I-2" value="" style="ellipse;whiteSpace=wrap;html=1;aspect=fixed;fillColor=#0099cc;strokeColor=#82b366;" parent="lsLaWu2NGyzTViGppG-I-3" vertex="1">
          <mxGeometry width="620" height="620" as="geometry" />
        </mxCell>
        <mxCell id="lsLaWu2NGyzTViGppG-I-1" value="" style="ellipse;whiteSpace=wrap;html=1;aspect=fixed;fillColor=#00cccc;strokeColor=#82b366;" parent="lsLaWu2NGyzTViGppG-I-3" vertex="1">
          <mxGeometry x="94.23" y="97.54" width="432.46" height="432.46" as="geometry" />
        </mxCell>
        <mxCell id="lsLaWu2NGyzTViGppG-I-0" value="" style="ellipse;whiteSpace=wrap;html=1;aspect=fixed;fillColor=#00ffcc;strokeColor=#82b366;align=center;" parent="lsLaWu2NGyzTViGppG-I-3" vertex="1">
          <mxGeometry x="188.93" y="210" width="221.58" height="221.58" as="geometry" />
        </mxCell>
        <mxCell id="lsLaWu2NGyzTViGppG-I-7" value="entities" style="html=1;fontSize=14;" parent="lsLaWu2NGyzTViGppG-I-3" vertex="1">
          <mxGeometry x="251.06502369303072" y="348.8221052631579" width="80.51777940439959" height="38.81578947368421" as="geometry" />
        </mxCell>
        <mxCell id="lsLaWu2NGyzTViGppG-I-8" value="«interface»&lt;br&gt;&lt;i&gt;repositories&lt;/i&gt;" style="html=1;fontSize=14;" parent="lsLaWu2NGyzTViGppG-I-3" vertex="1">
          <mxGeometry x="129.99636629810843" y="210.0018421052631" width="80.51777940439959" height="38.81578947368421" as="geometry" />
        </mxCell>
        <mxCell id="lsLaWu2NGyzTViGppG-I-39" style="rounded=0;orthogonalLoop=1;jettySize=auto;html=1;fontSize=14;endArrow=block;endFill=0;dashed=1;" parent="lsLaWu2NGyzTViGppG-I-3" source="lsLaWu2NGyzTViGppG-I-38" target="lsLaWu2NGyzTViGppG-I-8" edge="1">
          <mxGeometry relative="1" as="geometry" />
        </mxCell>
        <mxCell id="Sgo4O33tFJiqRKTH_Ozq-22" style="rounded=0;orthogonalLoop=1;jettySize=auto;html=1;" parent="lsLaWu2NGyzTViGppG-I-3" source="lsLaWu2NGyzTViGppG-I-38" target="Sgo4O33tFJiqRKTH_Ozq-21" edge="1">
          <mxGeometry relative="1" as="geometry" />
        </mxCell>
        <mxCell id="lsLaWu2NGyzTViGppG-I-38" value="repositories" style="html=1;fontSize=14;" parent="lsLaWu2NGyzTViGppG-I-3" vertex="1">
          <mxGeometry x="149.47899063836343" y="50.00105263157889" width="80.51777940439959" height="38.81578947368421" as="geometry" />
        </mxCell>
        <mxCell id="lsLaWu2NGyzTViGppG-I-41" style="edgeStyle=none;rounded=0;orthogonalLoop=1;jettySize=auto;html=1;fontSize=14;endArrow=open;endFill=0;" parent="lsLaWu2NGyzTViGppG-I-3" source="lsLaWu2NGyzTViGppG-I-10" target="lsLaWu2NGyzTViGppG-I-8" edge="1">
          <mxGeometry relative="1" as="geometry" />
        </mxCell>
        <mxCell id="wOMGkjf5EOQaN0JTgnZM-2" style="rounded=0;orthogonalLoop=1;jettySize=auto;html=1;" parent="lsLaWu2NGyzTViGppG-I-3" source="lsLaWu2NGyzTViGppG-I-10" target="wOMGkjf5EOQaN0JTgnZM-1" edge="1">
          <mxGeometry relative="1" as="geometry" />
        </mxCell>
        <mxCell id="ixm-vyaIn5SOb3wlX5sp-2" style="rounded=0;orthogonalLoop=1;jettySize=auto;html=1;" parent="lsLaWu2NGyzTViGppG-I-3" source="lsLaWu2NGyzTViGppG-I-10" target="ixm-vyaIn5SOb3wlX5sp-0" edge="1">
          <mxGeometry relative="1" as="geometry" />
        </mxCell>
        <mxCell id="lsLaWu2NGyzTViGppG-I-10" value="services" style="html=1;fontSize=14;" parent="lsLaWu2NGyzTViGppG-I-3" vertex="1">
          <mxGeometry x="354.99956004160725" y="150.00421052631583" width="80.51777940439959" height="38.81578947368421" as="geometry" />
        </mxCell>
        <mxCell id="Sgo4O33tFJiqRKTH_Ozq-23" style="edgeStyle=none;rounded=0;orthogonalLoop=1;jettySize=auto;html=1;" parent="lsLaWu2NGyzTViGppG-I-3" source="lsLaWu2NGyzTViGppG-I-24" target="lsLaWu2NGyzTViGppG-I-10" edge="1">
          <mxGeometry relative="1" as="geometry" />
        </mxCell>
        <mxCell id="Sgo4O33tFJiqRKTH_Ozq-24" style="edgeStyle=none;rounded=0;orthogonalLoop=1;jettySize=auto;html=1;" parent="lsLaWu2NGyzTViGppG-I-3" source="lsLaWu2NGyzTViGppG-I-24" target="Sgo4O33tFJiqRKTH_Ozq-19" edge="1">
          <mxGeometry relative="1" as="geometry" />
        </mxCell>
        <mxCell id="Rd-3Oh1vLso_yVoTqELJ-3" style="rounded=0;orthogonalLoop=1;jettySize=auto;html=1;" parent="lsLaWu2NGyzTViGppG-I-3" source="lsLaWu2NGyzTViGppG-I-24" target="Rd-3Oh1vLso_yVoTqELJ-1" edge="1">
          <mxGeometry relative="1" as="geometry" />
        </mxCell>
        <mxCell id="lsLaWu2NGyzTViGppG-I-24" value="api" style="html=1;fontSize=14;" parent="lsLaWu2NGyzTViGppG-I-3" vertex="1">
          <mxGeometry x="400.50907847594095" y="58.724736842105244" width="80.51777940439959" height="38.81578947368421" as="geometry" />
        </mxCell>
        <mxCell id="lsLaWu2NGyzTViGppG-I-11" value="db_connections" style="html=1;fontSize=14;" parent="lsLaWu2NGyzTViGppG-I-3" vertex="1">
          <mxGeometry x="-9.170000000000002" y="250" width="103.4" height="38.82" as="geometry" />
        </mxCell>
        <mxCell id="ixm-vyaIn5SOb3wlX5sp-1" style="rounded=0;orthogonalLoop=1;jettySize=auto;html=1;endArrow=block;endFill=0;dashed=1;" parent="lsLaWu2NGyzTViGppG-I-3" source="Sgo4O33tFJiqRKTH_Ozq-19" target="ixm-vyaIn5SOb3wlX5sp-0" edge="1">
          <mxGeometry relative="1" as="geometry" />
        </mxCell>
        <mxCell id="Sgo4O33tFJiqRKTH_Ozq-19" value="views" style="html=1;fontSize=14;" parent="lsLaWu2NGyzTViGppG-I-3" vertex="1">
          <mxGeometry x="259.48031012828915" y="19.908947368421053" width="80.51777940439959" height="38.81578947368421" as="geometry" />
        </mxCell>
        <mxCell id="Rd-3Oh1vLso_yVoTqELJ-5" style="rounded=0;orthogonalLoop=1;jettySize=auto;html=1;endArrow=block;endFill=0;dashed=1;" parent="lsLaWu2NGyzTViGppG-I-3" source="Sgo4O33tFJiqRKTH_Ozq-20" target="Rd-3Oh1vLso_yVoTqELJ-0" edge="1">
          <mxGeometry relative="1" as="geometry" />
        </mxCell>
        <mxCell id="Sgo4O33tFJiqRKTH_Ozq-20" value="auth" style="html=1;fontSize=14;" parent="lsLaWu2NGyzTViGppG-I-3" vertex="1">
          <mxGeometry x="539.4850810956582" y="279.9994736842105" width="80.51777940439959" height="38.81578947368421" as="geometry" />
        </mxCell>
        <mxCell id="Sgo4O33tFJiqRKTH_Ozq-21" value="models" style="html=1;fontSize=14;" parent="lsLaWu2NGyzTViGppG-I-3" vertex="1">
          <mxGeometry x="60" y="130.00000000000003" width="92.68" height="38.82" as="geometry" />
        </mxCell>
        <mxCell id="NysXpsWrsIXkPYsaMSlo-0" value="exceptions" style="html=1;fontSize=14;" parent="lsLaWu2NGyzTViGppG-I-3" vertex="1">
          <mxGeometry x="108.40956004160722" y="340.00421052631583" width="80.51777940439959" height="38.81578947368421" as="geometry" />
        </mxCell>
        <mxCell id="wOMGkjf5EOQaN0JTgnZM-0" value="value &lt;br&gt;objects" style="html=1;fontSize=14;" parent="lsLaWu2NGyzTViGppG-I-3" vertex="1">
          <mxGeometry x="199.99502369303076" y="280.00210526315783" width="80.51777940439959" height="38.81578947368421" as="geometry" />
        </mxCell>
        <mxCell id="wOMGkjf5EOQaN0JTgnZM-3" style="edgeStyle=none;rounded=0;orthogonalLoop=1;jettySize=auto;html=1;" parent="lsLaWu2NGyzTViGppG-I-3" source="wOMGkjf5EOQaN0JTgnZM-1" target="lsLaWu2NGyzTViGppG-I-7" edge="1">
          <mxGeometry relative="1" as="geometry" />
        </mxCell>
        <mxCell id="wOMGkjf5EOQaN0JTgnZM-5" style="edgeStyle=none;rounded=0;orthogonalLoop=1;jettySize=auto;html=1;" parent="lsLaWu2NGyzTViGppG-I-3" source="wOMGkjf5EOQaN0JTgnZM-1" target="wOMGkjf5EOQaN0JTgnZM-0" edge="1">
          <mxGeometry relative="1" as="geometry" />
        </mxCell>
        <mxCell id="wOMGkjf5EOQaN0JTgnZM-1" value="aggregates" style="html=1;fontSize=14;" parent="lsLaWu2NGyzTViGppG-I-3" vertex="1">
          <mxGeometry x="312.9950236930308" y="280.00210526315783" width="80.51777940439959" height="38.81578947368421" as="geometry" />
        </mxCell>
        <mxCell id="lsLaWu2NGyzTViGppG-I-4" value="&lt;font style=&quot;font-size: 18px;&quot;&gt;Domain&lt;/font&gt;" style="text;html=1;strokeColor=none;fillColor=none;align=center;verticalAlign=middle;whiteSpace=wrap;rounded=0;" parent="lsLaWu2NGyzTViGppG-I-3" vertex="1">
          <mxGeometry x="272.14" y="390" width="67.86" height="30" as="geometry" />
        </mxCell>
        <mxCell id="lsLaWu2NGyzTViGppG-I-6" value="&lt;font style=&quot;font-size: 18px;&quot;&gt;Infrastructure&lt;/font&gt;" style="text;html=1;strokeColor=none;fillColor=none;align=center;verticalAlign=middle;whiteSpace=wrap;rounded=0;" parent="lsLaWu2NGyzTViGppG-I-3" vertex="1">
          <mxGeometry x="251.06999999999996" y="560" width="117.86" height="30" as="geometry" />
        </mxCell>
        <mxCell id="lsLaWu2NGyzTViGppG-I-5" value="&lt;font style=&quot;font-size: 18px;&quot;&gt;Application services&lt;/font&gt;" style="text;html=1;strokeColor=none;fillColor=none;align=center;verticalAlign=middle;whiteSpace=wrap;rounded=0;" parent="lsLaWu2NGyzTViGppG-I-3" vertex="1">
          <mxGeometry x="257.14" y="464" width="97.86" height="50" as="geometry" />
        </mxCell>
        <mxCell id="Rd-3Oh1vLso_yVoTqELJ-0" value="«interface»&lt;br style=&quot;border-color: var(--border-color);&quot;&gt;&lt;i&gt;auth&lt;/i&gt;" style="html=1;fontSize=14;" parent="lsLaWu2NGyzTViGppG-I-3" vertex="1">
          <mxGeometry x="420.4950236930307" y="280.0021052631579" width="80.51777940439959" height="38.81578947368421" as="geometry" />
        </mxCell>
        <mxCell id="Rd-3Oh1vLso_yVoTqELJ-4" style="rounded=0;orthogonalLoop=1;jettySize=auto;html=1;" parent="lsLaWu2NGyzTViGppG-I-3" source="Rd-3Oh1vLso_yVoTqELJ-1" target="Rd-3Oh1vLso_yVoTqELJ-0" edge="1">
          <mxGeometry relative="1" as="geometry" />
        </mxCell>
        <mxCell id="Rd-3Oh1vLso_yVoTqELJ-1" value="servers" style="html=1;fontSize=14;" parent="lsLaWu2NGyzTViGppG-I-3" vertex="1">
          <mxGeometry x="489.9990784759409" y="150.00473684210522" width="80.51777940439959" height="38.81578947368421" as="geometry" />
        </mxCell>
        <mxCell id="ixm-vyaIn5SOb3wlX5sp-0" value="«interface»&lt;br&gt;&lt;i&gt;views&lt;/i&gt;" style="html=1;fontSize=14;" parent="lsLaWu2NGyzTViGppG-I-3" vertex="1">
          <mxGeometry x="251.06636629810845" y="120.00184210526311" width="80.51777940439959" height="38.81578947368421" as="geometry" />
        </mxCell>
        <mxCell id="wOMGkjf5EOQaN0JTgnZM-7" style="edgeStyle=none;rounded=0;orthogonalLoop=1;jettySize=auto;html=1;fontSize=18;dashed=1;" parent="WIyWlLk6GJQsqaUBKTNV-1" source="wOMGkjf5EOQaN0JTgnZM-6" target="lsLaWu2NGyzTViGppG-I-24" edge="1">
          <mxGeometry relative="1" as="geometry" />
        </mxCell>
        <mxCell id="wOMGkjf5EOQaN0JTgnZM-6" value="User" style="shape=umlActor;verticalLabelPosition=bottom;verticalAlign=top;html=1;outlineConnect=0;fontSize=18;" parent="WIyWlLk6GJQsqaUBKTNV-1" vertex="1">
          <mxGeometry x="445.77" y="10" width="30" height="60" as="geometry" />
        </mxCell>
        <mxCell id="Rd-3Oh1vLso_yVoTqELJ-8" value="Auth server&lt;br&gt;(Parking GraphQL)" style="shape=umlActor;verticalLabelPosition=bottom;verticalAlign=top;html=1;outlineConnect=0;fontSize=18;" parent="WIyWlLk6GJQsqaUBKTNV-1" vertex="1">
          <mxGeometry x="720" y="369.41" width="30" height="60" as="geometry" />
        </mxCell>
        <mxCell id="Rd-3Oh1vLso_yVoTqELJ-9" style="rounded=0;orthogonalLoop=1;jettySize=auto;html=1;dashed=1;" parent="WIyWlLk6GJQsqaUBKTNV-1" source="Sgo4O33tFJiqRKTH_Ozq-20" target="Rd-3Oh1vLso_yVoTqELJ-8" edge="1">
          <mxGeometry relative="1" as="geometry" />
        </mxCell>
      </root>
    </mxGraphModel>
  </diagram>
  <diagram id="CHLFLKvDqn4ZP3a6oMDH" name="Deployment diagram">
    <mxGraphModel dx="1004" dy="612" grid="1" gridSize="10" guides="1" tooltips="1" connect="1" arrows="1" fold="1" page="1" pageScale="1" pageWidth="827" pageHeight="1169" math="0" shadow="0">
      <root>
        <mxCell id="0" />
        <mxCell id="1" parent="0" />
        <mxCell id="tsjrXeTJMkpEpouFfiP--17" value="REST API" style="text;align=center;fontStyle=0;verticalAlign=middle;spacingLeft=3;spacingRight=3;strokeColor=none;rotatable=0;points=[[0,0.5],[1,0.5]];portConstraint=eastwest;fontSize=15;" parent="1" vertex="1">
          <mxGeometry x="85" y="825" width="100" height="46" as="geometry" />
        </mxCell>
        <mxCell id="ZrjcsuKuZAV5sQ9e0-kJ-6" value="" style="rounded=0;orthogonalLoop=1;jettySize=auto;html=1;endArrow=halfCircle;endFill=0;entryX=0.5;entryY=0.5;endSize=6;strokeWidth=1;sketch=0;dashed=1;" parent="1" source="i0YoTwmgu5wH7frchdvh-2" target="ZrjcsuKuZAV5sQ9e0-kJ-7" edge="1">
          <mxGeometry relative="1" as="geometry">
            <mxPoint x="-10" y="568.6206896551724" as="sourcePoint" />
          </mxGeometry>
        </mxCell>
        <mxCell id="ZrjcsuKuZAV5sQ9e0-kJ-7" value="" style="ellipse;whiteSpace=wrap;html=1;align=center;aspect=fixed;resizable=0;points=[];outlineConnect=0;sketch=0;" parent="1" vertex="1">
          <mxGeometry x="130" y="815" width="10" height="10" as="geometry" />
        </mxCell>
        <mxCell id="i0YoTwmgu5wH7frchdvh-1" value="message broker&lt;br style=&quot;font-size: 14px;&quot;&gt;&amp;lt;Redis&amp;gt;" style="sketch=0;aspect=fixed;html=1;points=[];align=center;image;fontSize=14;image=img/lib/mscae/Cache_Redis_Product.svg;" vertex="1" parent="1">
          <mxGeometry x="310" y="990" width="50" height="42" as="geometry" />
        </mxCell>
        <mxCell id="i0YoTwmgu5wH7frchdvh-3" value="Publish" style="rounded=0;orthogonalLoop=1;jettySize=auto;html=1;fontSize=14;" edge="1" parent="1" source="i0YoTwmgu5wH7frchdvh-2" target="i0YoTwmgu5wH7frchdvh-1">
          <mxGeometry x="0.157" y="10" relative="1" as="geometry">
            <mxPoint as="offset" />
          </mxGeometry>
        </mxCell>
        <mxCell id="i0YoTwmgu5wH7frchdvh-2" value="api&lt;br style=&quot;font-size: 14px;&quot;&gt;&amp;lt;Python Flask&amp;gt;" style="shape=image;html=1;verticalAlign=top;verticalLabelPosition=bottom;labelBackgroundColor=#ffffff;imageAspect=0;aspect=fixed;image=https://cdn4.iconfinder.com/data/icons/scripting-and-programming-languages/512/Python_logo-128.png;fontSize=14;" vertex="1" parent="1">
          <mxGeometry x="200" y="790" width="60" height="60" as="geometry" />
        </mxCell>
        <mxCell id="i0YoTwmgu5wH7frchdvh-5" value="&lt;font style=&quot;font-size: 15px;&quot;&gt;Subscribe&lt;/font&gt;" style="rounded=0;orthogonalLoop=1;jettySize=auto;html=1;" edge="1" parent="1" source="i0YoTwmgu5wH7frchdvh-4" target="i0YoTwmgu5wH7frchdvh-1">
          <mxGeometry relative="1" as="geometry" />
        </mxCell>
        <mxCell id="i0YoTwmgu5wH7frchdvh-8" value="&lt;font style=&quot;font-size: 15px;&quot;&gt;Read/Write&lt;/font&gt;" style="rounded=0;orthogonalLoop=1;jettySize=auto;html=1;" edge="1" parent="1" source="i0YoTwmgu5wH7frchdvh-4" target="i0YoTwmgu5wH7frchdvh-7">
          <mxGeometry relative="1" as="geometry" />
        </mxCell>
        <mxCell id="i0YoTwmgu5wH7frchdvh-4" value="bayes&lt;br style=&quot;font-size: 15px;&quot;&gt;&amp;lt;Python&amp;gt;" style="shape=image;html=1;verticalAlign=top;verticalLabelPosition=bottom;labelBackgroundColor=#ffffff;imageAspect=0;aspect=fixed;image=https://cdn4.iconfinder.com/data/icons/scripting-and-programming-languages/512/Python_logo-128.png;fontSize=15;" vertex="1" parent="1">
          <mxGeometry x="400" y="790" width="60" height="60" as="geometry" />
        </mxCell>
        <mxCell id="i0YoTwmgu5wH7frchdvh-7" value="in-memory database&lt;br&gt;&amp;lt;Redis&amp;gt;" style="sketch=0;aspect=fixed;html=1;points=[];align=center;image;fontSize=14;image=img/lib/mscae/Cache_Redis_Product.svg;" vertex="1" parent="1">
          <mxGeometry x="490" y="990" width="50" height="42" as="geometry" />
        </mxCell>
      </root>
    </mxGraphModel>
  </diagram>
  <diagram id="o0UaE2SFA4dS10cEcsgZ" name="Sequence diagram">
    <mxGraphModel dx="1004" dy="612" grid="1" gridSize="10" guides="1" tooltips="1" connect="1" arrows="1" fold="1" page="1" pageScale="1" pageWidth="827" pageHeight="1169" math="0" shadow="0">
      <root>
        <mxCell id="0" />
        <mxCell id="1" parent="0" />
        <mxCell id="7tKHPjhK-mxmBWOkA2Lx-3" value="" style="rounded=0;whiteSpace=wrap;html=1;" parent="1" vertex="1">
          <mxGeometry x="140" y="80" width="540" height="510" as="geometry" />
        </mxCell>
        <mxCell id="7tKHPjhK-mxmBWOkA2Lx-1" value="" style="shape=umlLifeline;perimeter=lifelinePerimeter;whiteSpace=wrap;html=1;container=1;dropTarget=0;collapsible=0;recursiveResize=0;outlineConnect=0;portConstraint=eastwest;newEdgeStyle={&quot;edgeStyle&quot;:&quot;elbowEdgeStyle&quot;,&quot;elbow&quot;:&quot;vertical&quot;,&quot;curved&quot;:0,&quot;rounded&quot;:0};participant=umlActor;size=40;" parent="1" vertex="1">
          <mxGeometry x="60" y="20" width="20" height="560" as="geometry" />
        </mxCell>
        <mxCell id="7tKHPjhK-mxmBWOkA2Lx-5" value=":message broker" style="shape=umlLifeline;perimeter=lifelinePerimeter;whiteSpace=wrap;html=1;container=1;dropTarget=0;collapsible=0;recursiveResize=0;outlineConnect=0;portConstraint=eastwest;newEdgeStyle={&quot;edgeStyle&quot;:&quot;elbowEdgeStyle&quot;,&quot;elbow&quot;:&quot;vertical&quot;,&quot;curved&quot;:0,&quot;rounded&quot;:0};fillColor=#f8cecc;strokeColor=#b85450;" parent="1" vertex="1">
          <mxGeometry x="440" y="20" width="100" height="560" as="geometry" />
        </mxCell>
        <mxCell id="7tKHPjhK-mxmBWOkA2Lx-15" value="" style="html=1;points=[];perimeter=orthogonalPerimeter;outlineConnect=0;targetShapes=umlLifeline;portConstraint=eastwest;newEdgeStyle={&quot;edgeStyle&quot;:&quot;elbowEdgeStyle&quot;,&quot;elbow&quot;:&quot;vertical&quot;,&quot;curved&quot;:0,&quot;rounded&quot;:0};" parent="7tKHPjhK-mxmBWOkA2Lx-5" vertex="1">
          <mxGeometry x="45" y="120" width="10" height="110" as="geometry" />
        </mxCell>
        <mxCell id="7tKHPjhK-mxmBWOkA2Lx-8" value="GET /update_model/&amp;lt;new data&amp;gt;" style="html=1;verticalAlign=bottom;startArrow=oval;endArrow=block;startSize=8;edgeStyle=elbowEdgeStyle;elbow=vertical;curved=0;rounded=0;" parent="1" source="7tKHPjhK-mxmBWOkA2Lx-1" target="7tKHPjhK-mxmBWOkA2Lx-7" edge="1">
          <mxGeometry x="-0.0032" relative="1" as="geometry">
            <mxPoint x="170" y="130.35000000000002" as="sourcePoint" />
            <Array as="points">
              <mxPoint x="110" y="130" />
            </Array>
            <mxPoint as="offset" />
          </mxGeometry>
        </mxCell>
        <mxCell id="7tKHPjhK-mxmBWOkA2Lx-4" value=":api" style="shape=umlLifeline;perimeter=lifelinePerimeter;whiteSpace=wrap;html=1;container=1;dropTarget=0;collapsible=0;recursiveResize=0;outlineConnect=0;portConstraint=eastwest;newEdgeStyle={&quot;edgeStyle&quot;:&quot;elbowEdgeStyle&quot;,&quot;elbow&quot;:&quot;vertical&quot;,&quot;curved&quot;:0,&quot;rounded&quot;:0};fillColor=#fff2cc;strokeColor=#d6b656;" parent="1" vertex="1">
          <mxGeometry x="180" y="20" width="100" height="560" as="geometry" />
        </mxCell>
        <mxCell id="7tKHPjhK-mxmBWOkA2Lx-7" value="" style="html=1;points=[];perimeter=orthogonalPerimeter;outlineConnect=0;targetShapes=umlLifeline;portConstraint=eastwest;newEdgeStyle={&quot;edgeStyle&quot;:&quot;elbowEdgeStyle&quot;,&quot;elbow&quot;:&quot;vertical&quot;,&quot;curved&quot;:0,&quot;rounded&quot;:0};" parent="7tKHPjhK-mxmBWOkA2Lx-4" vertex="1">
          <mxGeometry x="45" y="110.35" width="10" height="39.65" as="geometry" />
        </mxCell>
        <mxCell id="7tKHPjhK-mxmBWOkA2Lx-16" value="Publish (&lt;i&gt;new data)&lt;/i&gt;" style="html=1;verticalAlign=bottom;endArrow=block;edgeStyle=elbowEdgeStyle;elbow=vertical;curved=0;rounded=0;" parent="1" edge="1">
          <mxGeometry relative="1" as="geometry">
            <mxPoint x="239" y="149.99666666666675" as="sourcePoint" />
            <Array as="points" />
            <mxPoint x="489" y="149.99666666666675" as="targetPoint" />
          </mxGeometry>
        </mxCell>
        <mxCell id="7tKHPjhK-mxmBWOkA2Lx-18" value="return OK" style="html=1;verticalAlign=bottom;endArrow=open;dashed=1;endSize=8;edgeStyle=elbowEdgeStyle;elbow=vertical;curved=0;rounded=0;" parent="1" edge="1">
          <mxGeometry relative="1" as="geometry">
            <mxPoint x="225" y="170.0007317073171" as="sourcePoint" />
            <mxPoint x="70.01219512195132" y="170.0007317073171" as="targetPoint" />
            <Array as="points" />
          </mxGeometry>
        </mxCell>
        <mxCell id="7tKHPjhK-mxmBWOkA2Lx-53" value="User" style="text;align=center;fontStyle=1;verticalAlign=middle;spacingLeft=3;spacingRight=3;strokeColor=none;rotatable=0;points=[[0,0.5],[1,0.5]];portConstraint=eastwest;html=1;" parent="1" vertex="1">
          <mxGeometry x="30" y="60" width="80" height="26" as="geometry" />
        </mxCell>
        <mxCell id="pykDE-V2YqIw5G7txerA-1" value=":in-memory DB" style="shape=umlLifeline;perimeter=lifelinePerimeter;whiteSpace=wrap;html=1;container=1;dropTarget=0;collapsible=0;recursiveResize=0;outlineConnect=0;portConstraint=eastwest;newEdgeStyle={&quot;edgeStyle&quot;:&quot;elbowEdgeStyle&quot;,&quot;elbow&quot;:&quot;vertical&quot;,&quot;curved&quot;:0,&quot;rounded&quot;:0};fillColor=#f8cecc;strokeColor=#b85450;" vertex="1" parent="1">
          <mxGeometry x="560" y="20" width="100" height="560" as="geometry" />
        </mxCell>
        <mxCell id="pykDE-V2YqIw5G7txerA-3" value="" style="html=1;points=[];perimeter=orthogonalPerimeter;outlineConnect=0;targetShapes=umlLifeline;portConstraint=eastwest;newEdgeStyle={&quot;edgeStyle&quot;:&quot;elbowEdgeStyle&quot;,&quot;elbow&quot;:&quot;vertical&quot;,&quot;curved&quot;:0,&quot;rounded&quot;:0};" vertex="1" parent="pykDE-V2YqIw5G7txerA-1">
          <mxGeometry x="45" y="280.21" width="10" height="39.79" as="geometry" />
        </mxCell>
        <mxCell id="pykDE-V2YqIw5G7txerA-4" value="" style="html=1;points=[];perimeter=orthogonalPerimeter;outlineConnect=0;targetShapes=umlLifeline;portConstraint=eastwest;newEdgeStyle={&quot;edgeStyle&quot;:&quot;elbowEdgeStyle&quot;,&quot;elbow&quot;:&quot;vertical&quot;,&quot;curved&quot;:0,&quot;rounded&quot;:0};" vertex="1" parent="pykDE-V2YqIw5G7txerA-1">
          <mxGeometry x="45" y="400" width="10" height="20" as="geometry" />
        </mxCell>
        <mxCell id="pykDE-V2YqIw5G7txerA-5" value=":bayes" style="shape=umlLifeline;perimeter=lifelinePerimeter;whiteSpace=wrap;html=1;container=1;dropTarget=0;collapsible=0;recursiveResize=0;outlineConnect=0;portConstraint=eastwest;newEdgeStyle={&quot;edgeStyle&quot;:&quot;elbowEdgeStyle&quot;,&quot;elbow&quot;:&quot;vertical&quot;,&quot;curved&quot;:0,&quot;rounded&quot;:0};fillColor=#fff2cc;strokeColor=#d6b656;" vertex="1" parent="1">
          <mxGeometry x="314" y="20" width="100" height="560" as="geometry" />
        </mxCell>
        <mxCell id="pykDE-V2YqIw5G7txerA-9" value="update model &lt;br&gt;(&lt;i&gt;new data, old knowledge&lt;/i&gt;)" style="html=1;align=left;spacingLeft=2;endArrow=block;rounded=0;edgeStyle=orthogonalEdgeStyle;curved=0;rounded=0;" edge="1" parent="pykDE-V2YqIw5G7txerA-5">
          <mxGeometry relative="1" as="geometry">
            <mxPoint x="55" y="340" as="sourcePoint" />
            <Array as="points">
              <mxPoint x="80" y="340" />
              <mxPoint x="80" y="370" />
            </Array>
            <mxPoint x="55" y="370" as="targetPoint" />
            <mxPoint as="offset" />
          </mxGeometry>
        </mxCell>
        <mxCell id="A43hyMuf7WO1viXy1L7d-1" value="" style="html=1;points=[];perimeter=orthogonalPerimeter;outlineConnect=0;targetShapes=umlLifeline;portConstraint=eastwest;newEdgeStyle={&quot;edgeStyle&quot;:&quot;elbowEdgeStyle&quot;,&quot;elbow&quot;:&quot;vertical&quot;,&quot;curved&quot;:0,&quot;rounded&quot;:0};" vertex="1" parent="pykDE-V2YqIw5G7txerA-5">
          <mxGeometry x="45" y="180" width="10" height="380" as="geometry" />
        </mxCell>
        <mxCell id="A43hyMuf7WO1viXy1L7d-2" value="Subscribe" style="edgeStyle=elbowEdgeStyle;rounded=0;orthogonalLoop=1;jettySize=auto;html=1;elbow=vertical;curved=0;" edge="1" parent="1" source="A43hyMuf7WO1viXy1L7d-1" target="7tKHPjhK-mxmBWOkA2Lx-15">
          <mxGeometry relative="1" as="geometry">
            <Array as="points">
              <mxPoint x="460" y="210" />
            </Array>
          </mxGeometry>
        </mxCell>
        <mxCell id="A43hyMuf7WO1viXy1L7d-3" value="return &lt;i&gt;new data&lt;/i&gt;" style="edgeStyle=elbowEdgeStyle;rounded=0;orthogonalLoop=1;jettySize=auto;html=1;elbow=vertical;curved=0;dashed=1;" edge="1" parent="1">
          <mxGeometry relative="1" as="geometry">
            <mxPoint x="485" y="240" as="sourcePoint" />
            <mxPoint x="369" y="240" as="targetPoint" />
          </mxGeometry>
        </mxCell>
        <mxCell id="A43hyMuf7WO1viXy1L7d-4" value="generate&lt;br&gt;visualisation (&lt;i&gt;new knowledge&lt;/i&gt;)" style="html=1;align=left;spacingLeft=2;endArrow=block;rounded=0;edgeStyle=orthogonalEdgeStyle;curved=0;rounded=0;" edge="1" parent="1">
          <mxGeometry relative="1" as="geometry">
            <mxPoint x="370" y="500" as="sourcePoint" />
            <Array as="points">
              <mxPoint x="395" y="500" />
              <mxPoint x="395" y="530" />
            </Array>
            <mxPoint x="370" y="530" as="targetPoint" />
            <mxPoint as="offset" />
          </mxGeometry>
        </mxCell>
        <mxCell id="A43hyMuf7WO1viXy1L7d-5" value="Read&amp;nbsp;&lt;i&gt;old knowledge&lt;/i&gt;" style="edgeStyle=elbowEdgeStyle;rounded=0;orthogonalLoop=1;jettySize=auto;html=1;elbow=vertical;curved=0;" edge="1" parent="1">
          <mxGeometry relative="1" as="geometry">
            <mxPoint x="372" y="300.0033333333334" as="sourcePoint" />
            <mxPoint x="608" y="300.0033333333334" as="targetPoint" />
          </mxGeometry>
        </mxCell>
        <mxCell id="A43hyMuf7WO1viXy1L7d-6" value="return &lt;i&gt;old knowledge&lt;/i&gt;" style="edgeStyle=elbowEdgeStyle;rounded=0;orthogonalLoop=1;jettySize=auto;html=1;elbow=vertical;curved=0;dashed=1;" edge="1" parent="1">
          <mxGeometry relative="1" as="geometry">
            <mxPoint x="605" y="334.66333333333336" as="sourcePoint" />
            <mxPoint x="369" y="334.66333333333336" as="targetPoint" />
          </mxGeometry>
        </mxCell>
        <mxCell id="A43hyMuf7WO1viXy1L7d-8" style="edgeStyle=elbowEdgeStyle;rounded=0;orthogonalLoop=1;jettySize=auto;html=1;elbow=vertical;curved=0;" edge="1" parent="1">
          <mxGeometry relative="1" as="geometry">
            <mxPoint x="372" y="419.9966666666666" as="sourcePoint" />
            <mxPoint x="608" y="419.9966666666666" as="targetPoint" />
          </mxGeometry>
        </mxCell>
        <mxCell id="A43hyMuf7WO1viXy1L7d-9" value="Write &lt;i&gt;new knowledge&lt;/i&gt;" style="edgeLabel;html=1;align=center;verticalAlign=middle;resizable=0;points=[];" vertex="1" connectable="0" parent="A43hyMuf7WO1viXy1L7d-8">
          <mxGeometry x="0.3775" y="2" relative="1" as="geometry">
            <mxPoint x="-39" y="2" as="offset" />
          </mxGeometry>
        </mxCell>
        <mxCell id="A43hyMuf7WO1viXy1L7d-13" value=":filesystem&lt;br&gt;(`/graphs` folder)" style="shape=umlLifeline;perimeter=lifelinePerimeter;whiteSpace=wrap;html=1;container=1;dropTarget=0;collapsible=0;recursiveResize=0;outlineConnect=0;portConstraint=eastwest;newEdgeStyle={&quot;edgeStyle&quot;:&quot;elbowEdgeStyle&quot;,&quot;elbow&quot;:&quot;vertical&quot;,&quot;curved&quot;:0,&quot;rounded&quot;:0};" vertex="1" parent="1">
          <mxGeometry x="710" y="20" width="100" height="560" as="geometry" />
        </mxCell>
        <mxCell id="A43hyMuf7WO1viXy1L7d-15" value="" style="html=1;points=[];perimeter=orthogonalPerimeter;outlineConnect=0;targetShapes=umlLifeline;portConstraint=eastwest;newEdgeStyle={&quot;edgeStyle&quot;:&quot;elbowEdgeStyle&quot;,&quot;elbow&quot;:&quot;vertical&quot;,&quot;curved&quot;:0,&quot;rounded&quot;:0};" vertex="1" parent="A43hyMuf7WO1viXy1L7d-13">
          <mxGeometry x="45" y="530" width="10" height="20" as="geometry" />
        </mxCell>
        <mxCell id="A43hyMuf7WO1viXy1L7d-16" value="Save visualisation" style="edgeStyle=elbowEdgeStyle;rounded=0;orthogonalLoop=1;jettySize=auto;html=1;elbow=vertical;curved=0;" edge="1" parent="1" source="A43hyMuf7WO1viXy1L7d-1" target="A43hyMuf7WO1viXy1L7d-15">
          <mxGeometry relative="1" as="geometry" />
        </mxCell>
      </root>
    </mxGraphModel>
  </diagram>
</mxfile>
